<svg width="38" height="38" viewBox="0 0 38 38" fill="none" xmlns="http://www.w3.org/2000/svg">
<path d="M19.0018 0.666664C29.127 0.666664 37.3352 8.87477 37.3352 19C37.3352 29.1251 29.127 37.3333 19.0018 37.3333C15.6397 37.3333 12.4889 36.4284 9.7799 34.8486L0.676121 37.3333L3.15471 28.2244C1.57405 25.5149 0.668457 22.3632 0.668457 19C0.668457 8.87477 8.87657 0.666664 19.0018 0.666664ZM12.3859 10.3986C12.1487 10.4153 11.9161 10.4732 11.7044 10.5815C11.5455 10.6628 11.398 10.7803 11.1663 10.9991C10.9475 11.2057 10.8207 11.3861 10.6871 11.5601C10.0093 12.4425 9.64502 13.5258 9.65179 14.6385C9.65547 15.5379 9.88911 16.4121 10.2581 17.2283C11.0063 18.8834 12.2403 20.6331 13.8702 22.2558C14.2617 22.6456 14.6453 23.0396 15.0589 23.4037C17.082 25.1849 19.4928 26.4694 22.0996 27.155C22.0996 27.155 23.1263 27.3127 23.1413 27.3136C23.4814 27.3319 23.8209 27.3074 24.1614 27.29C24.6954 27.2625 25.2168 27.118 25.6887 26.8666C25.9921 26.7051 26.1357 26.6248 26.3903 26.4642C26.3903 26.4642 26.4684 26.4114 26.6191 26.2992C26.8666 26.1148 27.0195 25.985 27.2254 25.7712C27.3772 25.6136 27.5078 25.4273 27.6086 25.2174C27.752 24.9182 27.8962 24.3471 27.9536 23.8728C27.9974 23.5105 27.9842 23.3125 27.9795 23.1899C27.9716 22.9926 27.8086 22.7897 27.63 22.7035L26.564 22.2243C26.564 22.2243 24.9699 21.5305 23.9949 21.0858C23.8933 21.0394 23.7822 21.0179 23.6706 21.0112C23.426 20.9961 23.1519 21.0599 22.9776 21.2436C22.9684 21.24 22.8471 21.3448 21.5206 22.9517C21.4475 23.0392 21.2761 23.2293 20.9796 23.2115C20.9349 23.2084 20.8903 23.202 20.8469 23.1906C20.7268 23.1589 20.6098 23.1171 20.4954 23.0687C20.2687 22.9725 20.1891 22.936 20.0342 22.8692C18.9758 22.4069 18.0045 21.7883 17.1459 21.0313C16.9157 20.8286 16.7015 20.6102 16.4808 20.3963C15.7104 19.6495 15.0798 18.8553 14.6106 18.072C14.585 18.0292 14.5455 17.9675 14.503 17.8983C14.4262 17.7735 14.3415 17.625 14.315 17.5231C14.2469 17.2534 14.4276 17.0367 14.4276 17.0367C14.4276 17.0367 14.8739 16.5488 15.0812 16.2835C15.2807 16.0282 15.4529 15.7785 15.5625 15.6004C15.7785 15.2533 15.8468 14.8945 15.7334 14.6177C15.219 13.3637 14.6883 12.1165 14.1414 10.8764C14.0335 10.6317 13.7124 10.4538 13.4204 10.4201C13.3215 10.4087 13.2227 10.3972 13.1234 10.3907C12.8776 10.3787 12.6314 10.3814 12.3859 10.3986Z" fill="#7CBBC2"/>
</svg>
