<svg width="38" height="38" viewBox="0 0 38 38" fill="none" xmlns="http://www.w3.org/2000/svg">
<path d="M20.8848 0.668465C22.9481 0.671875 23.9936 0.682783 24.8971 0.709678L25.2529 0.72132C25.664 0.735931 26.0695 0.754265 26.5585 0.777182C28.5093 0.867308 29.8401 1.17593 31.0089 1.62968C32.2172 2.09564 33.2378 2.7251 34.2568 3.74412C35.2743 4.76314 35.9039 5.78677 36.3714 6.99218C36.8235 8.15939 37.1322 9.49162 37.2239 11.4426C37.2457 11.9315 37.2633 12.337 37.2778 12.7481L37.2893 13.1039C37.3161 14.0073 37.3284 15.053 37.3322 17.1162L37.3337 18.4834C37.3339 18.6504 37.3339 18.8227 37.3339 19.0006L37.3337 19.5177L37.3326 20.8849C37.3291 22.9481 37.3183 23.9936 37.2913 24.8971L37.2796 25.2529C37.2651 25.664 37.2468 26.0695 37.2239 26.5585C37.1337 28.5093 36.8235 29.8401 36.3714 31.0089C35.9053 32.2172 35.2743 33.2378 34.2568 34.2568C33.2378 35.2743 32.2126 35.9039 31.0089 36.3714C29.8401 36.8235 28.5093 37.1322 26.5585 37.2239C26.0695 37.2457 25.664 37.2633 25.2529 37.2778L24.8971 37.2893C23.9936 37.3161 22.9481 37.3284 20.8848 37.3322L19.5177 37.3337C19.3507 37.3339 19.1784 37.3339 19.0005 37.3339L18.4834 37.3337L17.1162 37.3326C15.053 37.3291 14.0073 37.3183 13.1039 37.2914L12.7481 37.2796C12.337 37.2651 11.9315 37.2468 11.4426 37.2239C9.49161 37.1337 8.16245 36.8235 6.99217 36.3714C5.78522 35.9053 4.76313 35.2743 3.74411 34.2568C2.72509 33.2378 2.09717 32.2127 1.62967 31.0089C1.17592 29.8401 0.868841 28.5093 0.777174 26.5585C0.755394 26.0695 0.737629 25.664 0.723237 25.2529L0.711706 24.8971C0.684884 23.9936 0.672656 22.9481 0.668696 20.8849L0.668457 17.1162C0.671867 15.053 0.682775 14.0073 0.70967 13.1039L0.721312 12.7481C0.735924 12.337 0.754257 11.9315 0.777174 11.4426C0.867301 9.4901 1.17592 8.16093 1.62967 6.99218C2.09563 5.78522 2.72509 4.76314 3.74411 3.74412C4.76313 2.7251 5.78676 2.09718 6.99217 1.62968C8.16092 1.17593 9.49009 0.868848 11.4426 0.777182C11.9315 0.755402 12.337 0.737636 12.7481 0.723245L13.1039 0.711713C14.0073 0.684891 15.053 0.672663 17.1162 0.668703L20.8848 0.668465ZM19.0005 9.83385C13.9352 9.83385 9.83384 13.9397 9.83384 19.0006C9.83384 24.0659 13.9396 28.1672 19.0005 28.1672C24.0659 28.1672 28.1672 24.0613 28.1672 19.0006C28.1672 13.9352 24.0613 9.83385 19.0005 9.83385ZM19.0005 13.5005C22.0382 13.5005 24.5005 15.962 24.5005 19.0006C24.5005 22.0382 22.0389 24.5006 19.0005 24.5006C15.9629 24.5006 13.5005 22.0389 13.5005 19.0006C13.5005 15.9629 15.962 13.5005 19.0005 13.5005ZM28.6255 7.08385C27.3618 7.08385 26.3339 8.11033 26.3339 9.37396C26.3339 10.6376 27.3604 11.6656 28.6255 11.6656C29.8891 11.6656 30.9172 10.6392 30.9172 9.37396C30.9172 8.11033 29.8874 7.08225 28.6255 7.08385Z" fill="#7CBBC2"/>
</svg>
