<svg width="38" height="38" viewBox="0 0 38 38" fill="none" xmlns="http://www.w3.org/2000/svg">
<path d="M19.0018 37.3332C8.87657 37.3332 0.668457 29.125 0.668457 18.9998C0.668457 8.87461 8.87657 0.666504 19.0018 0.666504C29.127 0.666504 37.3352 8.87461 37.3352 18.9998C37.3352 29.125 29.127 37.3332 19.0018 37.3332ZM13.3004 21.1463L13.3236 21.1316C14.3864 24.6405 14.9178 26.395 14.9178 26.395C15.1237 26.9642 15.4067 27.0658 15.75 27.0194C16.0932 26.9728 16.2755 26.7871 16.4995 26.571C16.4995 26.571 17.2261 25.8697 18.6792 24.4674L23.3558 27.9278C24.2079 28.3986 24.8232 28.1557 25.0348 27.1356L28.0741 12.7966C28.4096 11.4619 27.8211 10.9266 26.7862 11.3503L8.94227 18.2429C7.72492 18.7322 7.73081 19.4133 8.72064 19.7169L13.3004 21.1463Z" fill="white"/>
</svg>
