<svg width="34" height="34" viewBox="0 0 34 34" fill="none" xmlns="http://www.w3.org/2000/svg">
<path d="M33.5 25.1033V31.5862C33.5 32.5487 32.7558 33.3473 31.7959 33.4151C30.994 33.4718 30.3399 33.5 29.8333 33.5C13.6329 33.5 0.5 20.3671 0.5 4.16667C0.5 3.66014 0.528325 3.00593 0.584975 2.20408C0.652845 1.24411 1.45139 0.5 2.41374 0.5H8.89685C9.36743 0.5 9.76156 0.856437 9.80881 1.32463C9.85123 1.74496 9.89066 2.08242 9.92713 2.33704C10.298 4.92699 11.0555 7.39216 12.1393 9.67222C12.3132 10.0382 12.1998 10.4762 11.8701 10.7118L7.91318 13.5383C10.3221 19.1653 14.8347 23.6779 20.4617 26.0869L23.283 22.1368C23.5215 21.8032 23.9648 21.6884 24.3352 21.8642C26.6151 22.9472 29.08 23.7038 31.6696 24.0737C31.9226 24.11 32.2579 24.1491 32.6754 24.1912C33.1436 24.2386 33.5 24.6327 33.5 25.1033Z" fill="#7CBBC2"/>
</svg>
