<svg width="38" height="38" viewBox="0 0 38 38" fill="none" xmlns="http://www.w3.org/2000/svg">
<path d="M19.0018 37.3333C8.87657 37.3333 0.668457 29.1251 0.668457 19C0.668457 8.87477 8.87657 0.666664 19.0018 0.666664C29.127 0.666664 37.3352 8.87477 37.3352 19C37.3352 29.1251 29.127 37.3333 19.0018 37.3333ZM13.3004 21.1465L13.3236 21.1318C14.3864 24.6406 14.9178 26.3951 14.9178 26.3951C15.1237 26.9644 15.4067 27.0659 15.75 27.0195C16.0932 26.973 16.2755 26.7873 16.4995 26.5711C16.4995 26.5711 17.2261 25.8699 18.6792 24.4675L23.3558 27.928C24.2079 28.3988 24.8232 28.1558 25.0348 27.1358L28.0741 12.7967C28.4096 11.4621 27.8211 10.9268 26.7862 11.3505L8.94227 18.243C7.72492 18.7323 7.73081 19.4134 8.72064 19.717L13.3004 21.1465Z" fill="#7CBBC2"/>
</svg>
