<svg width="38" height="38" viewBox="0 0 38 38" fill="none" xmlns="http://www.w3.org/2000/svg">
<path d="M19.0018 0.666504C29.127 0.666504 37.3352 8.87461 37.3352 18.9998C37.3352 29.125 29.127 37.3332 19.0018 37.3332C15.6397 37.3332 12.4889 36.4282 9.7799 34.8484L0.676121 37.3332L3.15471 28.2243C1.57405 25.5148 0.668457 22.3631 0.668457 18.9998C0.668457 8.87461 8.87657 0.666504 19.0018 0.666504ZM12.3859 10.3984C12.1487 10.4151 11.9161 10.473 11.7044 10.5814C11.5455 10.6626 11.398 10.7801 11.1663 10.9989C10.9475 11.2055 10.8207 11.3859 10.6871 11.5599C10.0093 12.4424 9.64502 13.5256 9.65179 14.6383C9.65547 15.5378 9.88911 16.4119 10.2581 17.2281C11.0063 18.8832 12.2403 20.633 13.8702 22.2557C14.2617 22.6454 14.6453 23.0394 15.0589 23.4035C17.082 25.1848 19.4928 26.4692 22.0996 27.1549C22.0996 27.1549 23.1263 27.3125 23.1413 27.3135C23.4814 27.3318 23.8209 27.3072 24.1614 27.2898C24.6954 27.2623 25.2168 27.1178 25.6887 26.8665C25.9921 26.705 26.1357 26.6247 26.3903 26.4641C26.3903 26.4641 26.4684 26.4113 26.6191 26.2991C26.8666 26.1146 27.0195 25.9848 27.2254 25.7711C27.3772 25.6134 27.5078 25.4271 27.6086 25.2172C27.752 24.918 27.8962 24.3469 27.9536 23.8727C27.9974 23.5104 27.9842 23.3124 27.9795 23.1897C27.9716 22.9925 27.8086 22.7895 27.63 22.7034L26.564 22.2241C26.564 22.2241 24.9699 21.5304 23.9949 21.0856C23.8933 21.0392 23.7822 21.0178 23.6706 21.011C23.426 20.996 23.1519 21.0598 22.9776 21.2435C22.9684 21.2398 22.8471 21.3447 21.5206 22.9516C21.4475 23.039 21.2761 23.2292 20.9796 23.2114C20.9349 23.2083 20.8903 23.2018 20.8469 23.1905C20.7268 23.1588 20.6098 23.117 20.4954 23.0686C20.2687 22.9723 20.1891 22.9358 20.0342 22.8691C18.9758 22.4067 18.0045 21.7882 17.1459 21.0312C16.9157 20.8284 16.7015 20.6101 16.4808 20.3961C15.7104 19.6494 15.0798 18.8552 14.6106 18.0718C14.585 18.0291 14.5455 17.9673 14.503 17.8982C14.4262 17.7733 14.3415 17.6248 14.315 17.5229C14.2469 17.2532 14.4276 17.0365 14.4276 17.0365C14.4276 17.0365 14.8739 16.5487 15.0812 16.2834C15.2807 16.028 15.4529 15.7783 15.5625 15.6003C15.7785 15.2531 15.8468 14.8943 15.7334 14.6175C15.219 13.3635 14.6883 12.1163 14.1414 10.8762C14.0335 10.6315 13.7124 10.4537 13.4204 10.42C13.3215 10.4085 13.2227 10.3971 13.1234 10.3905C12.8776 10.3785 12.6314 10.3812 12.3859 10.3984Z" fill="white"/>
</svg>
