<svg width="34" height="34" viewBox="0 0 34 34" fill="none" xmlns="http://www.w3.org/2000/svg">
<path d="M28.6164 28.6215H23.7296V20.964C23.7296 19.138 23.6926 16.7882 21.1831 16.7882C18.6354 16.7882 18.2462 18.7752 18.2462 20.8293V28.6215H13.3594V12.875H18.0537V15.0213H18.1169C18.7729 13.7838 20.3679 12.4776 22.7506 12.4776C27.7021 12.4776 28.6179 15.7365 28.6179 19.9783L28.6164 28.6215ZM7.84021 10.7204C6.26721 10.7204 5.00358 9.44713 5.00358 7.881C5.00358 6.31625 6.26858 5.04438 7.84021 5.04438C9.40771 5.04438 10.6782 6.31625 10.6782 7.881C10.6782 9.44713 9.40633 10.7204 7.84021 10.7204ZM10.2905 28.6215H5.38996V12.875H10.2905V28.6215ZM31.0611 0.5H2.93696C1.59083 0.5 0.501831 1.56425 0.501831 2.87738V31.1227C0.501831 32.437 1.59083 33.5 2.93696 33.5H31.0571C32.4019 33.5 33.5019 32.437 33.5019 31.1227V2.87738C33.5019 1.56425 32.4019 0.5 31.0571 0.5H31.0611Z" fill="white"/>
</svg>
